HIERARCHY
ROOT Hips
{
  OFFSET 0 0 0
  CHANNELS 6 Xposition Yposition Zposition Zrotation Yrotation Xrotation
  JOINT LeftThigh
  {
    OFFSET 8.409438 0 -5.917753
    CHANNELS 3 Zrotation Yrotation Xrotation
    JOINT LeftLeg
    {
      OFFSET 0 0 -42.358652
      CHANNELS 3 Zrotation Yrotation Xrotation
      JOINT LeftFoot
      {
        OFFSET 0 0 -39.357303
        CHANNELS 3 Zrotation Yrotation Xrotation
      }
    }
  }
  JOINT RightThigh
  {
    OFFSET -8.409438 0 -5.917753
    CHANNELS 3 Zrotation Yrotation Xrotation
    JOINT RightLeg
    {
      OFFSET 0 0 -42.358652
      CHANNELS 3 Zrotation Yrotation Xrotation
      JOINT RightFoot
      {
        OFFSET 0 0 -39.357303
        CHANNELS 3 Zrotation Yrotation Xrotation
      }
    }
  }
  JOINT SpineLow
  {
    OFFSET 0 0 4.719101
    CHANNELS 3 Zrotation Yrotation Xrotation
    JOINT SpineMid
    {
      OFFSET 0 0 12.899191
      CHANNELS 3 Zrotation Yrotation Xrotation
      JOINT Chest
      {
        OFFSET 0 0 12.899191
        CHANNELS 3 Zrotation Yrotation Xrotation
        JOINT LeftShoulder
        {
          OFFSET 7.550562 1.41573 9.438202
          CHANNELS 3 Zrotation Yrotation Xrotation
          JOINT LeftArm
          {
            OFFSET 9.155056 0 4.247191
            CHANNELS 3 Zrotation Yrotation Xrotation
            JOINT LeftForearm
            {
              OFFSET 0 0 25.771955
              CHANNELS 3 Zrotation Yrotation Xrotation
              JOINT LeftHand
              {
                OFFSET 0 0 25.197169
                CHANNELS 3 Zrotation Yrotation Xrotation
              }
            }
          }
        }
        JOINT RightShoulder
        {
          OFFSET -7.550562 1.41573 9.438202
          CHANNELS 3 Zrotation Yrotation Xrotation
          JOINT RightArm
          {
            OFFSET -9.155056 0 4.247191
            CHANNELS 3 Zrotation Yrotation Xrotation
            JOINT RightForearm
            {
              OFFSET 0 0 -25.771955
              CHANNELS 3 Zrotation Yrotation Xrotation
              JOINT RightHand
              {
                OFFSET 0 0 -25.197169
                CHANNELS 3 Zrotation Yrotation Xrotation
              }
            }
          }
        }
        JOINT Neck
        {
          OFFSET 0 0 15.101124
          CHANNELS 3 Zrotation Yrotation Xrotation
          JOINT Head
          {
            OFFSET 0 0 11.325843
            CHANNELS 3 Zrotation Yrotation Xrotation
            End Site
            {
              OFFSET 0 0 14.157303
            }
          }
        }
      }
    }
  }
}
MOTION
Frames: 5
Frame Time: 0.0
0.0  89.887642  0.0  -1.56572  -7.905878  -91.34403  5.323602  -12.709838  0.838694  4.463817  0.64692  12.450271  0.769267  -0.410762  0.297081  -4.08191  8.685712  -1.542417  -8.342439  5.797869  8.315262  4.005211  0.715378  -1.135153  -0.045465  -0.982792  -0.946591  -0.085817  -2.68767  -2.586875  -0.085817  -2.68767  -2.586875  -4.4115  17.021227  7.255486  143.21367  35.727785  -167.232764  8.026155  -2.668774  44.031999  92.09934  -3.451101  5.648131  -3.038586  -5.102277  21.739931  75.907562  26.389571  35.449592  0.704382  13.865273  -29.47581  97.280122  -4.177756  -8.221373  -15.86891  -3.383791  -23.737965  -12.051498  -1.92583  -17.900587  
0.0  89.887642  0.0  -1.567751  -6.760825  -91.188609  5.0013  -12.761048  0.410373  4.068615  0.623471  12.584584  0.68569  -0.417361  0.280665  -4.23676  8.719139  -1.246227  -9.213382  5.730628  8.056416  4.007439  0.708742  -1.229292  -0.116698  -0.963121  -0.947863  -0.281304  -2.636699  -2.587497  -0.281304  -2.636699  -2.587497  -4.537761  16.949416  7.029432  142.766457  35.896145  -167.399554  8.181142  -2.586688  43.824808  92.061114  -3.449303  5.75287  -3.018175  -4.801098  21.421241  74.936771  25.835002  34.948871  0.504977  13.997286  -29.972605  97.230501  -4.192462  -8.243072  -16.242788  -3.407197  -23.905892  -12.334453  -1.924479  -18.029919  
0.0  89.887642  0.0  -1.637314  -5.433363  -91.004735  4.755473  -12.912546  -0.050124  3.660632  0.612205  12.807975  0.499243  -0.417652  0.18552  -4.753053  8.626877  -1.099596  -11.128514  5.712277  7.660625  4.952702  0.825549  -1.165381  -0.205104  -0.95647  -0.95148  -0.523142  -2.622001  -2.593892  -0.523142  -2.622001  -2.593892  -4.665664  16.958281  6.774774  142.012982  36.136234  -167.645159  8.129999  -2.444672  43.498748  92.010557  -3.432042  5.842581  -3.387688  -4.419758  20.87804  74.378569  25.002842  34.653747  0.262023  14.144386  -30.501932  97.045374  -4.283406  -8.196636  -16.690674  -3.403387  -24.117096  -12.672339  -1.898361  -18.191686  
0.0  89.887642  0.0  -1.655487  -4.192296  -90.908163  4.681697  -13.035704  -0.495621  3.026884  0.681805  12.937222  0.403541  -0.413499  0.165582  -4.800179  8.56628  -0.817734  -12.122108  5.736893  7.611613  4.946574  0.834981  -1.225459  -0.274793  -0.939575  -0.938392  -0.714855  -2.57842  -2.555477  -0.714855  -2.57842  -2.555477  -4.842897  16.909585  6.494497  141.370414  36.295637  -167.851175  8.236472  -2.355641  43.230227  91.981885  -3.406707  5.94248  -3.318315  -4.086446  20.583543  73.193753  24.403582  34.157777  0.044728  14.407617  -31.131328  96.996735  -4.375933  -8.130356  -17.171593  -3.447763  -24.326605  -13.036869  -1.906909  -18.353665  
0.0  89.887642  0.0  -1.722238  -2.827819  -90.789689  4.694235  -13.247556  -0.989485  2.314867  0.771517  13.097142  0.227029  -0.380396  0.108141  -4.934451  8.436765  -0.663297  -13.065296  5.783892  7.725484  4.593849  0.811565  -1.321634  -0.341974  -0.932987  -0.925655  -0.899289  -2.562833  -2.518092  -0.899289  -2.562833  -2.518092  -5.14874  16.964515  6.173968  140.345123  36.548839  -168.118135  8.147946  -2.225573  42.822328  91.920119  -3.360311  6.019154  -3.76278  -3.660772  20.067393  72.451592  23.582055  33.922296  -0.172428  14.725453  -31.894123  96.823524  -4.538961  -7.967544  -17.788839  -3.460784  -24.589303  -13.503089  -1.884524  -18.55594  
